<svg id="Layer_1" data-name="Layer 1" xmlns="http://www.w3.org/2000/svg" viewBox="0 0 512 512"><defs><style>.cls-1{fill:#141f38;}</style></defs><title>bacteria-glyph</title><path class="cls-1" d="M481.65,209.27a228.94,228.94,0,0,0-30.74-76.07A51.18,51.18,0,0,0,448,64h0a51.18,51.18,0,0,0-69.19-2.91,228.92,228.92,0,0,0-76.07-30.74,51.15,51.15,0,0,0-93.47,0A228.93,228.93,0,0,0,133.19,61.1,51.18,51.18,0,0,0,64,64h0a51.18,51.18,0,0,0-2.9,69.19,228.92,228.92,0,0,0-30.74,76.07,51.15,51.15,0,0,0,0,93.47A228.93,228.93,0,0,0,61.09,378.8,51.18,51.18,0,0,0,64,448h0a51.18,51.18,0,0,0,69.18,2.91,228.92,228.92,0,0,0,76.08,30.75,51.15,51.15,0,0,0,93.47,0,228.94,228.94,0,0,0,76.07-30.74A51.18,51.18,0,0,0,448,448h0a51.18,51.18,0,0,0,2.91-69.18,228.93,228.93,0,0,0,30.75-76.08,51.15,51.15,0,0,0,0-93.47ZM275.2,294.4a44.8,44.8,0,1,1-44.8,44.8A44.8,44.8,0,0,1,275.2,294.4Zm96-96a57.6,57.6,0,1,1-57.6-57.6A57.6,57.6,0,0,1,371.2,198.4ZM204.8,256a38.4,38.4,0,1,1-38.4-38.4A38.4,38.4,0,0,1,204.8,256Z"/></svg>