<svg id="Layer_1" data-name="Layer 1" xmlns="http://www.w3.org/2000/svg" viewBox="0 0 512 512"><defs><style>.cls-1{fill:#141f38;fill-rule:evenodd;}</style></defs><title>briefcase-glyph</title><path class="cls-1" d="M448.9,102.4H345.6V88.8a50.55,50.55,0,0,0-50.4-50.4H216.8a50.55,50.55,0,0,0-50.4,50.4v13.6H63.1A63.1,63.1,0,0,0,0,165.5v61.76c0,.35.06.68.06,1a41.51,41.51,0,0,0,34.05,30.27L218.5,286.22a38.37,38.37,0,0,1,75,0l184.39-27.66a41.51,41.51,0,0,0,34.05-30.27c0-.35.06-.68.06-1V165.5A63.1,63.1,0,0,0,448.9,102.4Zm-128.9,0H192V88.8A24.83,24.83,0,0,1,216.8,64h78.4A24.83,24.83,0,0,1,320,88.8ZM482.13,286.87c1.45-.22,2.85-.54,4.27-.84V409.6a64.19,64.19,0,0,1-64,64H89.6a64.19,64.19,0,0,1-64-64V286c1.41.3,2.82.62,4.27.84L217.6,315v5a38.4,38.4,0,1,0,76.8,0v-5ZM256,332.8A13,13,0,0,1,243.2,320V294.4a12.8,12.8,0,0,1,25.6,0V320A13,13,0,0,1,256,332.8Z"/></svg>